<svg width="114" height="91" viewBox="0 0 114 91" fill="none" xmlns="http://www.w3.org/2000/svg">
<path d="M113.892 77.063C112.396 73.4372 108.228 71.7132 104.594 73.2239L100.657 74.8591L93.7639 56.7479C102.296 50.5272 105.306 38.9212 99.9092 29.5901L84.4836 2.8411C83.0586 0.370592 80.0127 -0.660268 77.3586 0.423912L56.9989 8.84852L36.6392 0.423912C33.9852 -0.678041 30.9392 0.370592 29.5142 2.8411L14.0886 29.5901C8.70924 38.9212 11.7017 50.5272 20.2339 56.7302L13.3405 74.8413L9.40393 73.2061C5.77018 71.6954 1.61987 73.4194 0.105804 77.0452C-0.197009 77.7739 0.141429 78.6093 0.871741 78.9114L29.7814 90.8907C30.5117 91.1929 31.3311 90.8552 31.6339 90.1265C33.1302 86.5007 31.4202 82.3417 27.7864 80.8309L23.8499 79.1958L30.868 60.7825C31.6517 60.8714 32.4355 61.0136 33.2014 61.0136C42.4105 61.0136 50.9071 55.1306 53.4008 45.8528L56.9989 32.4516L60.5971 45.8528C63.0908 55.1306 71.5874 61.0136 80.7964 61.0136C81.5624 61.0136 82.3461 60.8714 83.1299 60.7825L90.1302 79.1958L86.1936 80.8309C82.5599 82.3417 80.8321 86.5007 82.3461 90.1265C82.6489 90.8552 83.4861 91.1929 84.1986 90.8907L113.126 78.9114C113.839 78.6093 114.195 77.7917 113.892 77.063ZM49.1436 28.8081L29.1758 20.5434L35.6774 9.27508L52.5102 16.2423L49.1436 28.8081ZM64.8542 28.8081L61.4877 16.2423L78.3205 9.27508L84.8221 20.5434L64.8542 28.8081Z" fill="white"/>
</svg>
