<svg width="19" height="13" viewBox="0 0 19 13" fill="none" xmlns="http://www.w3.org/2000/svg">
<path d="M9.5 2.70833C9.15039 2.71394 8.80337 2.77094 8.46951 2.8776C8.62394 3.15633 8.70616 3.47104 8.70833 3.79167C8.70833 4.04063 8.66055 4.28716 8.56772 4.51717C8.47489 4.74718 8.33882 4.95618 8.16729 5.13222C7.99576 5.30827 7.79212 5.44791 7.56801 5.54319C7.34389 5.63846 7.10369 5.6875 6.86111 5.6875C6.5487 5.68528 6.24206 5.60089 5.97048 5.4424C5.75621 6.20506 5.78118 7.01758 6.04186 7.76487C6.30254 8.51216 6.7857 9.15633 7.42292 9.60614C8.06013 10.0559 8.81909 10.2886 9.59229 10.2711C10.3655 10.2536 11.1137 9.9869 11.731 9.50872C12.3483 9.03055 12.8034 8.36517 13.0317 7.60682C13.2601 6.84848 13.2502 6.03561 13.0034 5.28337C12.7566 4.53113 12.2854 3.87765 11.6567 3.4155C11.0279 2.95334 10.2734 2.70594 9.5 2.70833ZM18.8852 6.00573C17.0964 2.42362 13.555 0 9.5 0C5.44501 0 1.90262 2.42531 0.114774 6.00607C0.0393153 6.15926 0 6.32851 0 6.50017C0 6.67183 0.0393153 6.84108 0.114774 6.99427C1.90361 10.5764 5.44501 13 9.5 13C13.555 13 17.0974 10.5747 18.8852 6.99393C18.9607 6.84074 19 6.67149 19 6.49983C19 6.32818 18.9607 6.15892 18.8852 6.00573ZM9.5 11.375C6.24591 11.375 3.26264 9.51302 1.6516 6.5C3.26264 3.48698 6.24558 1.625 9.5 1.625C12.7544 1.625 15.7374 3.48698 17.3484 6.5C15.7377 9.51302 12.7544 11.375 9.5 11.375Z" fill="white"/>
</svg>
