<svg width="69" height="85" viewBox="0 0 69 85" fill="none" xmlns="http://www.w3.org/2000/svg">
<path d="M34.4834 2.52221C34.6161 3.30248 37.1538 18.2107 37.1538 23.905C37.1538 32.5876 32.5428 38.78 25.7257 41.2703L27.8654 80.7986C27.9815 83.073 26.1736 84.9988 23.8846 84.9988H13.2692C10.9969 84.9988 9.17236 83.0896 9.28846 80.7986L11.4281 41.2703C4.59447 38.78 0 32.571 0 23.905C0 18.1941 2.53774 3.30248 2.67043 2.52221C3.2012 -0.847907 10.1841 -0.897712 10.6154 2.70483V26.1462C10.831 26.7107 13.12 26.6775 13.2692 26.1462C13.5014 21.946 14.5796 3.03686 14.5962 2.60522C15.1435 -0.847907 22.0103 -0.847907 22.5411 2.60522C22.5743 3.05346 23.6358 21.946 23.868 26.1462C24.0173 26.6775 26.3228 26.7107 26.5219 26.1462V2.70483C26.9531 -0.881111 33.9526 -0.847907 34.4834 2.52221ZM54.2546 49.9529L51.7666 80.6824C51.5676 83.0066 53.4087 84.9988 55.7308 84.9988H65.0192C67.2252 84.9988 69 83.2224 69 81.0144V3.98315C69 1.79174 67.2252 -0.00122757 65.0192 -0.00122757C51.3353 -0.00122757 28.2966 29.6326 54.2546 49.9529Z" fill="white"/>
</svg>
